{"title":"NRL 360 - 22-9-2016","uid":15888945,"size":1215399091,"categoryP":"video","categoryS":"tv_shows","magnet":"?xt=urn:btih:7b97efa888e6b22a9d0a93d8fbdd3a891e26469e&amp;dn=NRL+360+-+22-9-2016&amp;tr=udp%3A%2F%2Ftracker.leechers-paradise.org%3A6969&amp;tr=udp%3A%2F%2Fzer0day.ch%3A1337&amp;tr=udp%3A%2F%2Fopen.demonii.com%3A1337&amp;tr=udp%3A%2F%2Ftracker.coppersurfer.tk%3A6969&amp;tr=udp%3A%2F%2Fexodus.desync.com%3A6969","seeders":3,"leechers":4,"uploader":"Bullrout","files":1,"time":1474693548,"description":"NRL 360 - 22-9-2016\r\n\r\nOn the agenda; players under pressure, how match officials prepare for the big games &amp; market watch. Plus Geoff Toovey &amp; Billy Moore are part of a massive Prelim Finals preview on Legends' Night.\r\n\r\nComplete name                            : NRL 360 - 22-9-2016.mkv\r\nFormat                                   : Matroska\r\nFormat version                           : Version 4 / Version 2\r\nFile size                                : 1.13 GiB\r\nDuration                                 : 49 min 53 s\r\nOverall bit rate mode                    : Variable\r\nOverall bit rate                         : 3 248 kb/s\r\nEncoded date                             : UTC 2016-09-23 12:38:04\r\nWriting application                      : mkvmerge v9.4.2 ('So High') 64bit\r\nWriting library                          : libebml v1.3.4 + libmatroska v1.4.5\r\n\r\nVideo\r\nID                                       : 2\r\nFormat                                   : AVC\r\nFormat/Info                              : Advanced Video Codec\r\nFormat profile                           :   \r\nFormat settings, CABAC                   : Yes\r\nFormat settings, ReFrames                : 3 frames\r\nCodec ID                                 : V_MPEG4/ISO/AVC\r\nDuration                                 : 49 min 53 s\r\nBit rate mode                            : Variable\r\nBit rate                                 : 2 862 kb/s\r\nMaximum bit rate                         : 3 000 kb/s\r\nWidth                                    : 1 280 pixels\r\nHeight                                   : 720 pixels\r\nDisplay aspect ratio                     : 16:9\r\nFrame rate mode                          : Constant\r\nFrame rate                               : 25.000 FPS\r\nStandard                                 : PAL\r\nColor space                              : YUV\r\nChroma subsampling                       : 4:2:0\r\nBit depth                                : 8 bits\r\nScan type                                : Progressive\r\nBits/(Pixel*Frame)                       : 0.124\r\nStream size                              : 1 021 MiB (88%)\r\nWriting library                          : x264 core 112\r\nDefault                                  : Yes\r\nForced                                   : No\r\nColor range                              : Limited\r\nColor primaries                          : BT.709\r\nTransfer characteristics                 : BT.709\r\nMatrix coefficients                      : BT.709\r\n\r\nAudio\r\nID                                       : 1\r\nFormat                                   : AC-3\r\nFormat/Info                              : Audio Coding 3\r\nMode extension                           : CM (complete main)\r\nFormat settings, Endianness              : Big\r\nCodec ID                                 : A_AC3\r\nDuration                                 : 49 min 53 s\r\nBit rate mode                            : Constant\r\nBit rate                                 : 384 kb/s\r\nChannel(s)                               : 6 channels\r\nChannel positions                        : Front: L C R, Side: L R, LFE\r\nSampling rate                            : 48.0 kHz\r\nFrame rate                               : 31.250 FPS (1536 spf)\r\nCompression mode                         : Lossy\r\nStream size                              : 137 MiB (12%)\r\nDefault                                  : Yes\r\nForced                                   : No","torrent":{"xt":"urn:btih:7b97efa888e6b22a9d0a93d8fbdd3a891e26469e","amp;dn":"NRL+360+-+22-9-2016","amp;tr":["udp%3A%2F%2Ftracker.leechers-paradise.org%3A6969","udp%3A%2F%2Fzer0day.ch%3A1337","udp%3A%2F%2Fopen.demonii.com%3A1337","udp%3A%2F%2Ftracker.coppersurfer.tk%3A6969","udp%3A%2F%2Fexodus.desync.com%3A6969"],"infoHash":"7b97efa888e6b22a9d0a93d8fbdd3a891e26469e","infoHashBuffer":{"type":"Buffer","data":[123,151,239,168,136,230,178,42,157,10,147,216,251,221,58,137,30,38,70,158]},"announce":[],"urlList":[]}}